<svg width="230" height="70" viewBox="0 0 230 70" fill="none" xmlns="http://www.w3.org/2000/svg">
<g id="TTC Logo 1" clip-path="url(#clip0_4586_54)">
<g id="Ebene_1">
<g id="Group">
<path id="Vector" d="M0 0.5H56.0996V16.6252L54.2989 14.3755H51.3381L56.0996 21.0826V26.6929L46.2705 14.3755H43.7295L56.0996 31.9538V36.7536L38.2562 14.3755H36.2064L56.0996 42.9228V46.8354L30.2064 14.3755H28.7117L56.0996 54.0945V55.5617H55.0178L22.1495 14.3755H21.3096L49.3665 55.5617H46.9609L14.2918 14.7178L41.6726 55.5617H38.968L14.2918 24.5969V25.4772L34.0641 55.5617H30.9395L14.2918 34.6786V36.5021L26.5338 55.5617H22.9181L14.2918 44.7464V47.8135L19.1174 55.5617H14.8826L14.2918 54.8211V55.5617H0V0.5Z" fill="#163072"/>
<path id="Vector_2" d="M195.438 31.7931C194.456 31.7931 193.658 32.5756 193.658 33.5398V42.2591C193.658 43.2232 194.456 44.0057 195.438 44.0057H229.189V50.9784H195.438C190.534 50.9784 186.555 47.0729 186.555 42.2591V31.8001C187.559 27.8177 191.139 24.8274 195.438 24.8274H229.189V31.8001H195.438V31.7931ZM133.267 24.8204H138.598V14.3615H145.701V24.8204H181.224V31.7931H145.701V42.2521C145.701 43.2162 146.498 43.9988 147.48 43.9988H181.231V50.9714H147.48C142.577 50.9714 138.598 47.0659 138.598 42.2521V31.7931H133.267V24.8204ZM92.4128 42.2521C92.4128 43.2162 93.21 43.9988 94.1922 43.9988H127.943V50.9714H94.1922C89.2883 50.9714 85.3096 47.0659 85.3096 42.2521V31.7931H79.9787V24.8204H85.3096V14.3615H92.4128V24.8204H127.936V31.7931H92.4128V42.2521Z" fill="#163072"/>
<path id="Vector_3" fill-rule="evenodd" clip-rule="evenodd" d="M222.036 60.7318H224.363V64.4347L227.068 60.7318H229.673L226.463 64.6723L230 69.3044H227.11L224.363 65.329V69.3044H222.036V60.7388V60.7318ZM210.683 60.7318H213.011V69.2974H210.683V60.7318ZM195.722 60.7318H202.377V62.4505H200.214V69.3044H197.886V62.4505H195.722V60.7318ZM182.826 60.7318H185.63L188.932 69.2974H186.441L185.822 67.4809H182.463L181.808 69.2974H179.502L182.811 60.7318H182.826ZM184.178 62.6461L183.046 65.86H185.267L184.171 62.6461H184.178ZM160.833 60.7318H164.384L165.979 65.881C166.043 66.0836 166.093 66.3141 166.128 66.5726C166.164 66.8311 166.199 67.1036 166.214 67.3971C166.242 67.0827 166.278 66.7892 166.327 66.5167C166.37 66.2513 166.427 66.0207 166.484 65.8321L168.078 60.7318H171.573V69.2974H169.381V63.5474C169.381 63.2749 169.388 62.9885 169.402 62.6951L169.473 61.7519L169.295 62.4924C169.231 62.73 169.167 62.9466 169.096 63.1562L167.132 69.2974H165.046L163.125 63.261C163.06 63.0514 162.996 62.8208 162.932 62.5623C162.868 62.3038 162.811 62.0383 162.762 61.7519L162.833 62.8488L162.861 63.5824V69.2974H160.826V60.7318H160.833ZM145.231 60.7318H148.698C149.851 60.7318 150.712 60.9135 151.274 61.2838C151.836 61.654 152.114 62.213 152.114 62.9606C152.114 63.5125 151.964 63.9736 151.673 64.3299C151.381 64.6862 150.954 64.9238 150.391 65.0496C150.854 65.2172 151.217 65.6853 151.502 66.4539L152.548 69.2974H150.121L149.352 66.9499C149.231 66.5726 149.06 66.3141 148.847 66.1674C148.633 66.0207 148.306 65.9508 147.851 65.9508H147.516V69.2974H145.238V60.7318H145.231ZM147.509 62.2409V64.4417H148.327C148.833 64.4417 149.21 64.3509 149.459 64.1762C149.708 63.9946 149.836 63.7291 149.836 63.3728C149.836 62.9885 149.694 62.702 149.416 62.5204C149.139 62.3387 148.69 62.2479 148.085 62.2479H147.509V62.2409ZM132.214 60.5222C133.566 60.5222 134.626 60.9205 135.395 61.7099C136.157 62.5064 136.541 63.6033 136.541 65.0076C136.541 66.4119 136.157 67.5158 135.395 68.3053C134.633 69.0948 133.573 69.4931 132.214 69.4931C130.854 69.4931 129.786 69.0948 129.018 68.3053C128.249 67.5158 127.872 66.4189 127.872 65.0076C127.872 63.5963 128.256 62.4994 129.025 61.7099C129.794 60.9135 130.854 60.5222 132.214 60.5222ZM132.214 62.192C131.609 62.192 131.125 62.4435 130.762 62.9536C130.391 63.4636 130.214 64.1413 130.214 64.9937C130.214 65.846 130.399 66.5307 130.762 67.0407C131.125 67.5508 131.609 67.8093 132.221 67.8093C132.833 67.8093 133.302 67.5578 133.665 67.0477C134.028 66.5377 134.206 65.853 134.206 64.9937C134.206 64.1343 134.028 63.4636 133.665 62.9536C133.302 62.4435 132.826 62.185 132.228 62.185L132.214 62.192ZM113.815 60.7318H119.566V62.3597H116.157V64.1902H119.416V65.8181H116.157V69.2974H113.815V60.7318ZM96.8256 60.7318H99.7295L102.256 65.867C102.342 66.0417 102.441 66.2792 102.555 66.5866C102.669 66.894 102.797 67.2713 102.932 67.7184C102.861 67.2992 102.804 66.908 102.769 66.5517C102.733 66.1954 102.719 65.874 102.719 65.5805V60.7248H104.819V69.2904H101.929L99.3025 63.9666C99.1815 63.7221 99.0676 63.4566 98.968 63.1701C98.8683 62.8837 98.7687 62.5693 98.6833 62.2339C98.7687 62.744 98.8256 63.2121 98.8612 63.6452C98.9039 64.0714 98.9181 64.4487 98.9181 64.7771V69.2974H96.8185V60.7318H96.8256ZM85.4804 60.7318H87.8078V69.2974H85.4804V60.7318Z" fill="#163072"/>
<path id="Vector_4" fill-rule="evenodd" clip-rule="evenodd" d="M70.4626 34.6506V41.3368L51.3381 14.3684H54.2989L70.4626 34.6506ZM70.4626 19.6084L66.7046 14.3754H70.4128L70.4626 19.6084ZM70.4626 30.5355L58.9466 14.3754H62.3488L70.4698 24.5619V30.5355H70.4626ZM70.4626 52.3757L43.7295 14.3754H46.2705L70.4626 44.7183V52.3757ZM70.4626 63.5403L36.2064 14.3754H38.2633L70.4698 54.7791V63.5403H70.4626ZM66.7189 69.4999L28.7117 14.3754H30.2064L70.4626 64.8538V69.4999H66.7189ZM58.8541 69.4999L21.3096 14.3754H22.1495L66.1352 69.4999H58.8612H58.8541ZM51.0107 69.4999L14.2918 14.7177L58.1139 69.493H51.0178L51.0107 69.4999ZM43.2242 69.4999L14.2918 25.4772V24.5968L50.0783 69.4999H43.2242ZM35.4804 69.4999L14.2918 36.5091V34.6786L42.0498 69.4999H35.4875H35.4804ZM27.8078 69.4999L14.2847 47.8204V44.7463L34.0214 69.4999H27.8078ZM20.2278 69.4999L14.2847 59.5929V54.821L25.9929 69.4999H20.2278ZM14.2918 64.8748L17.9786 69.493H14.2918V64.8748Z" fill="#009CDE"/>
</g>
</g>
</g>
<defs>
<clipPath id="clip0_4586_54">
<rect width="230" height="69" fill="white" transform="translate(0 0.5)"/>
</clipPath>
</defs>
</svg>
